# xmcd
#
# Track frame offsets: 
#        150
#        12060
#        23745
#        38232
#        48550
#        60697
#        72800
#        86512
#        100182
#        111407
#        124142
#        135575
#        147670
#        158512
#        172370
#        183817
#        192557
#        205980
#        216702
#        230362
#        240932
#        251597
#        264122
#        274125
#        288385
#        302832
#
# Disc length: 4176 seconds
#
# Revision: 5
# Processed by: cddbd v1.5.2PL0 Copyright (c) Steve Scherf et al.
# Submitted via: ExactAudioCopyFreeDBPlugin 1.0
#
DISCID=80104e1a
DTITLE=Various Artist - The Specialty Story [disc 3]
DYEAR=1994
DGENRE=R&B
TTITLE0=Lloyd Price - Oooh Oooh Oooh
TTITLE1=Lloyd Price - Restless Heart
TTITLE2=Jesse and Marvin - Dream Girl
TTITLE3=Lloyd Price - Tell Me Pretty Baby
TTITLE4=Lloyd Price - Ain't It a Shame^
TTITLE5=Frank Motley and His Crew - Frantic
TTITLE6=Alex Bradford - Too Close to Heaven
TTITLE7=The Swan Silvertones - I'm Coming Home
TTITLE8=Pilgram Travelers - I've Got a New Home
TTITLE9=Mercy Dee Walton - One Room Country Shack
TTITLE10=Frankie Lee Sims - Lucy Mae Blues
TTITLE11=Roy Milton and His Solid Senders - Early in the Morning
TTITLE12=H-Bomb Ferguson - She's Been Gone
TTITLE13=Floyd Dixon - Hard Living Alone
TTITLE14=Jimmy Liggins and His 3-D Music - Drunk
TTITLE15=Little Temple and His 88 - I Ate the Wrong Part
TTITLE16=Honeyboy - Bloodstains on the Wall
TTITLE17=Marvin and Johnny - Baby Doll
TTITLE18=Guitar Slim - The Things That I Used to Do
TTITLE19=Earl King - I'm Your Best Bet Baby
TTITLE20=The Chosen Gospel Singers featuring Lou Rawls - No Room in th
TTITLE20=e Hotel
TTITLE21=John Lee Hooker - I'm Mad
TTITLE22=Daddy Cleanhead - Something's Going On in My Room
TTITLE23=Chimes - Zindy Lou
TTITLE24=The Soul Stirrers featuring Sam Cooke - One More River
TTITLE25=Jesse Belvin - Where's My Girl
EXTD=
EXTT0=
EXTT1=
EXTT2=
EXTT3=
EXTT4=
EXTT5=
EXTT6=
EXTT7=
EXTT8=
EXTT9=
EXTT10=
EXTT11=
EXTT12=
EXTT13=
EXTT14=
EXTT15=
EXTT16=
EXTT17=
EXTT18=
EXTT19=
EXTT20=
EXTT21=
EXTT22=
EXTT23=
EXTT24=
EXTT25=
PLAYORDER=
